<svg version="1.1" id="Layer_1" xmlns="http://www.w3.org/2000/svg" xmlns:xlink="http://www.w3.org/1999/xlink" x="0px" y="0px"
	 width="100%" viewBox="0 0 192 192" enable-background="new 0 0 192 192" xml:space="preserve">
<path fill="#FFFFFF" opacity="1.000000" stroke="none" 
	d="
M1.000001,89.000000 
	C1.000000,59.701569 1.000000,30.403137 1.000000,1.052352 
	C64.888916,1.052352 128.777878,1.052352 193.000000,1.052352 
	C193.000000,30.020044 193.000000,59.041363 192.745041,88.895226 
	C191.665680,89.041115 190.510437,88.520279 190.069870,87.641251 
	C186.909805,81.336052 184.048080,74.878273 180.789780,68.626244 
	C177.704514,62.706223 174.290375,56.955013 170.904953,51.197723 
	C170.535507,50.569439 169.403519,50.063992 168.619278,50.055573 
	C160.824203,49.971901 153.027863,50.004860 144.075562,50.004860 
	C149.125900,67.425926 159.940399,80.900108 167.305756,96.384331 
	C163.458008,103.464211 159.238937,111.190117 155.061737,118.938599 
	C153.967300,120.968719 153.342514,123.348564 151.913956,125.083588 
	C147.922836,129.930893 145.734558,135.379059 144.892517,142.000000 
	C151.285034,142.000000 157.341354,141.380890 163.209457,142.166885 
	C169.609741,143.024155 172.498077,139.586731 174.950317,134.900925 
	C180.078156,125.102463 185.092819,115.244492 190.279755,105.477760 
	C190.683289,104.717926 192.070160,104.480331 193.000000,104.000000 
	C193.000000,133.631561 193.000000,163.263107 193.000000,192.947327 
	C129.110886,192.947327 65.221733,192.947327 1.000000,192.947327 
	C1.000000,163.646606 1.000000,134.291962 1.389995,104.482285 
	C2.318694,105.250107 2.746676,106.537392 3.414631,107.685005 
	C6.918366,113.704803 10.594551,119.626945 13.986595,125.708076 
	C16.212946,129.699402 17.870533,134.012497 20.166098,137.958527 
	C21.122696,139.602890 23.025955,141.744385 24.583727,141.816193 
	C32.875439,142.198318 41.194084,141.996017 51.127640,141.996017 
	C42.408497,125.970589 34.172207,110.832611 26.261841,96.293686 
	C31.001438,87.916733 35.551418,80.057465 39.916927,72.097031 
	C42.990452,66.492500 45.707104,60.691963 48.792511,55.094379 
	C50.347851,52.272663 49.632393,50.096115 46.481884,50.046074 
	C38.505489,49.919373 30.525732,50.004028 23.043371,50.004028 
	C20.155588,55.634201 17.548941,60.881187 14.788170,66.045792 
	C12.641081,70.062370 10.374581,74.019974 8.027260,77.923271 
	C5.774461,81.669411 3.349376,85.311943 1.000001,89.000000 
M84.000000,86.513687 
	C84.000000,104.933685 84.000000,123.353691 84.000000,141.768433 
	C92.648270,141.768433 100.585037,141.768433 109.042892,141.768433 
	C109.042892,119.152390 109.042892,96.760498 109.042892,73.921684 
	C117.981667,73.921684 126.406868,73.921684 136.109863,73.921684 
	C134.501984,70.459442 133.362411,67.807991 132.056915,65.240936 
	C130.110229,61.413109 127.684639,57.783943 126.154533,53.804295 
	C125.058800,50.954395 123.555176,49.963745 120.706596,49.973579 
	C104.541862,50.029381 88.375984,49.929649 72.213394,50.123840 
	C70.786934,50.140976 68.938499,51.591331 68.056763,52.896626 
	C66.132439,55.745361 64.046013,58.766708 63.242294,62.018227 
	C62.258137,65.999733 56.492107,68.419746 59.789326,74.098389 
	C67.535187,74.098389 75.609375,74.098389 84.000000,74.098389 
	C84.000000,78.244644 84.000000,81.882866 84.000000,86.513687 
z"/>
<path fill="#2B9FD9" opacity="1.000000" stroke="none" 
	d="
M1.000001,89.466118 
	C3.349376,85.311943 5.774461,81.669411 8.027260,77.923271 
	C10.374581,74.019974 12.641081,70.062370 14.788170,66.045792 
	C17.548941,60.881187 20.155588,55.634201 23.043371,50.004028 
	C30.525732,50.004028 38.505489,49.919373 46.481884,50.046074 
	C49.632393,50.096115 50.347851,52.272663 48.792511,55.094379 
	C45.707104,60.691963 42.990452,66.492500 39.916927,72.097031 
	C35.551418,80.057465 31.001438,87.916733 26.261841,96.293686 
	C34.172207,110.832611 42.408497,125.970589 51.127640,141.996017 
	C41.194084,141.996017 32.875439,142.198318 24.583727,141.816193 
	C23.025955,141.744385 21.122696,139.602890 20.166098,137.958527 
	C17.870533,134.012497 16.212946,129.699402 13.986595,125.708076 
	C10.594551,119.626945 6.918366,113.704803 3.414631,107.685005 
	C2.746676,106.537392 2.318694,105.250107 1.389995,104.013626 
	C1.000000,99.310745 1.000000,94.621490 1.000001,89.466118 
z"/>
<path fill="#2B9FD9" opacity="1.000000" stroke="none" 
	d="
M193.000000,103.533890 
	C192.070160,104.480331 190.683289,104.717926 190.279755,105.477760 
	C185.092819,115.244492 180.078156,125.102463 174.950317,134.900925 
	C172.498077,139.586731 169.609741,143.024155 163.209457,142.166885 
	C157.341354,141.380890 151.285034,142.000000 144.892517,142.000000 
	C145.734558,135.379059 147.922836,129.930893 151.913956,125.083588 
	C153.342514,123.348564 153.967300,120.968719 155.061737,118.938599 
	C159.238937,111.190117 163.458008,103.464211 167.305756,96.384331 
	C159.940399,80.900108 149.125900,67.425926 144.075562,50.004860 
	C153.027863,50.004860 160.824203,49.971901 168.619278,50.055573 
	C169.403519,50.063992 170.535507,50.569439 170.904953,51.197723 
	C174.290375,56.955013 177.704514,62.706223 180.789780,68.626244 
	C184.048080,74.878273 186.909805,81.336052 190.069870,87.641251 
	C190.510437,88.520279 191.665680,89.041115 192.745041,89.363884 
	C193.000000,93.689255 193.000000,98.378510 193.000000,103.533890 
z"/>
<path fill="#2B9FD9" opacity="1.000000" stroke="none" 
	d="
M84.000000,86.017387 
	C84.000000,81.882866 84.000000,78.244644 84.000000,74.098389 
	C75.609375,74.098389 67.535187,74.098389 59.789326,74.098389 
	C56.492107,68.419746 62.258137,65.999733 63.242294,62.018227 
	C64.046013,58.766708 66.132439,55.745361 68.056763,52.896626 
	C68.938499,51.591331 70.786934,50.140976 72.213394,50.123840 
	C88.375984,49.929649 104.541862,50.029381 120.706596,49.973579 
	C123.555176,49.963745 125.058800,50.954395 126.154533,53.804295 
	C127.684639,57.783943 130.110229,61.413109 132.056915,65.240936 
	C133.362411,67.807991 134.501984,70.459442 136.109863,73.921684 
	C126.406868,73.921684 117.981667,73.921684 109.042892,73.921684 
	C109.042892,96.760498 109.042892,119.152390 109.042892,141.768433 
	C100.585037,141.768433 92.648270,141.768433 84.000000,141.768433 
	C84.000000,123.353691 84.000000,104.933685 84.000000,86.017387 
z"/>
</svg>