<?xml version="1.0" encoding="UTF-8" standalone="no"?>
<!DOCTYPE svg PUBLIC "-//W3C//DTD SVG 1.1//EN" "http://www.w3.org/Graphics/SVG/1.1/DTD/svg11.dtd">
<svg id="LightModeLogo_svg__Layer_2_00000136413131797625847300000014149953042150242458_" xmlns="http://www.w3.org/2000/svg" x="0" y="0" viewBox="0 0 1335.6 510.8" style="enable-background:new 0 0 1335.6 510.8" xml:space="preserve" class="my-2 mr-3 hidden h-12 fill-inherit xl:block"><style>.LightModeLogo_svg__st1{fill:inherit}</style><g id="LightModeLogo_svg__Layer_1-2"><path d="M986.5 96.1c5 12.9 10 25.8 15 38.6-.2.1-.4.3-.5.4-4.9-5-9.9-9.9-14.8-15-10.5-10.7-21-21.5-31.5-32.2-5.9-6-11.8-12-17.5-18-1.6-1.7-3.2-2.3-5.5-2.2-13.7.1-27.4 0-41.1.1-2.3 0-3.9-.6-5.5-2.2-16-16.1-32-32-48-48.1-1.9-1.9-3.3-2.1-5.7-.9-23.2 11.9-46.6 23.7-69.8 35.6-2.2 1.2-3.6 1-5.5-.7-8-7.3-16.1-14.4-24.2-21.6-.5-.4-1.3-1.1-1.6-1-3.1 1.6-6.2 3.3-9.2 5.2-1 .7.3 1.5.9 2 11.4 12.2 22.8 24.3 34.2 36.5s22.7 24.4 34 36.6c.4.4 1.1.7.9 2-30.5-16.7-60.8-33.4-91.2-50l-.5.5c24 33 47.9 65.9 71.9 98.8-.2.2-.4.3-.5.5-41.1-34.4-82.2-68.8-123.3-103.3-.3.1-.5.3-.8.4 2.9 21.2 5.8 42.3 8.8 64.4-4.4-3.8-8.1-7-11.8-10.3-22.3-19.8-44.6-39.6-66.9-59.3-3.7-3.3-7.5-6.5-11.1-9.9-2-1.8-4.4-1.4-6.6-1.7-23.5-3.2-46.9-6.3-70.4-9.3-.8-.1-1.7-.5-2.7.4 20.4 38.5 40.9 77 61.3 115.5l-.5.5c-2.3-1.7-4.7-3.4-7-5.1-21.3-15.9-42.5-31.9-63.8-47.8-9.5-7.1-19.2-14.2-28.6-21.4-2.1-1.6-3.4-1.5-5.4 0-6.5 4.8-13.1 9.3-19.6 14.1-2 1.5-3.6 1.4-5.7.3-9.9-5.2-19.8-10.2-30.1-15.4-1.5 7.3-2.9 14.2-4.3 21.1-.1.3 0 .7-.1 1-.5 1.1 0 2.8-1.1 3.2-1.3.4-2-1.2-2.8-1.9-17.9-16.9-35.9-33.7-53.8-50.6-1.3-1.2-2.1-1.4-3.6-.3-6.5 5-13 9.8-19.6 14.6-1.7 1.3-2.5 2.7-2.6 5-.5 9.1-1.4 18.2-1.9 27.4-.1 2.4-1.4 2.3-3 2.3H262c-2.7 0-3.4 1.2-2 3.6 9.4 16.5 18.9 32.9 28.3 49.4.4.7 1.2 1.4 1 2.4-.9.6-1.9.4-2.9.4H180.6c-.6 0-1.4.2-1.7-.6-.2-.7.4-1.2.9-1.6 3.2-2.9 6.4-5.8 9.6-8.6 22.8-20.1 45.5-40.2 68.3-60.2 18.8-16.6 37.6-33.1 56.3-49.8 1.8-1.6 2.7-1.2 4.3.2 14.6 13.6 29.4 27.1 44 40.8 1.9 1.8 2.9 1.8 4.8 0 5.5-5.1 11.2-9.9 16.8-15 1.6-1.5 2.5-1.4 4 .2 6.1 6.7 12.5 13.1 18.6 19.8 1.3 1.4 2.2 1.8 3.9.3 4.7-4.3 9.6-8.4 14.6-12.5 7.2-6 12.2-13.9 18.1-21 8.9-10.8 17.6-21.8 26.3-32.8 1.7-2.1 2.9-2.4 5.4-.9 21.3 13 44.4 19.3 69.4 17.8 23.3-1.4 44.9-8.7 64.7-21 1.6-1 3.1-1.3 5-1.3 30.4 0 60.8.1 91.1 0 2.2 0 3.3.6 4.1 2.7 2.5 6.8 5.4 13.5 7.9 20.3.9 2.5 1.8 2.2 3.5 1 3.6-2.5 7.3-4.9 10.9-7.5 1.6-1.2 2.7-1.2 4.4-.1 9.1 6 18.3 11.9 27.4 17.9 2.2 1.5 4 1.7 6.4.4 25.3-12.8 50.8-25.4 76.1-38.2 2.4-1.2 3.8-1 5.8.6 14.6 11.8 29.3 23.5 43.8 35.3 1.6 1.3 2.8.8 4.2.1 14.2-6.7 28.3-13.3 42.5-20.1 2.1-1 3.4-.7 5.1.8C963 32 979.1 46.2 995 60.5c1.4 1.3 2.4 1.2 4 .3 5-2.9 10.2-5.6 15.3-8.5 1.7-1 2.8-.9 4.3.5 16.3 15.1 32.7 30 49 45.1 1.9 1.8 3.7 2.2 6.2 1.7 18-3.6 35.9-8 53.3-13.8 1.2-.4 2.2-.6 3.4.3 10.5 8.3 21 16.5 31.4 24.8.2.1.2.4.9 1.5-11.1-6.1-21.3-11.8-31.8-17.6 1.1 5.3 2.8 9.1 8 11.4 9.8 4.4 19.3 9.8 28.9 14.7 1.8.9 3.1 7.7 1.7 9.1-.9.9-2.1.4-3.2.3-8.8-.9-17.5-1.9-26.3-2.8-11.5-1.2-23-3-34.5-3.6-10.7-.6-19.9-5-29.4-8.8-15.9-6.3-31.7-12.7-47.6-19.1-.7-.3-1.3-.9-2.5-.4 16.1 19.8 32.1 39.5 48.1 59.2-.2.2-.3.4-.4.5-29-19.8-57.9-39.6-86.9-59.3-.1-.2-.3-.1-.4.1z" style="fill:#5aa5e9"></path><path class="LightModeLogo_svg__st1" d="M945.2 344.9v-29.1c0-1.5-.2-3.1-.3-4.6-.4-4.6-3-7.2-7.5-8-5-.9-10-1.6-15-2.4-1.8-.3-3.5-.8-2.8-3 .7-2.2-.5-5.9 3.6-5.9 12.8 0 25.6-1.2 38.3-2.7h1c2.3-.3 5.5-2.1 6.7-.6 1.2 1.4.3 4.6.2 7-1 29-.5 58.1-.7 87.1 0 10.1 1.5 11.5 11.5 11.3 1 0 2 0 3-.1 5.5-.4 5.7-.3 4.6 5-.5 2.4-.3 3.3 2.4 2.5 1.6-.5 3.2-.6 4.9-.9 6.3-1.4 8.6-4.2 9-10.8 1.1-18.9.6-37.8.6-56.6 0-5.3-.4-10.6-.5-15.9 0-3.4-1.6-5.8-4.3-7.8-3-2.2-6.3-3.6-9.7-4.9-2.1-.8-2.3-2.2-1.9-3.9.4-1.7.2-3.8 2.9-4.2 12.1-1.7 23.6-5.2 34.7-10.3 2.4-1.1 2.7.2 2.7 2-.2 4.5-.4 9-.5 13.6 0 1.2-.6 2.7.6 3.4 1.3.7 2.1-.9 3-1.5 7.5-5.8 15.4-11 24.3-14.6 22.4-9.1 43.5 1.5 49.5 25.1 1.7 6.8 2.5 13.6 2.6 20.6.2 16.2.1 32.5.2 48.7 0 3.3.3 6.6.5 9.9.1 2.5 1.4 4.1 3.6 5.1 3.5 1.6 7.3 2.6 11.1 3 3.2.3 4.2 1.8 3.9 4.9-.4 4.3-1 5-5.2 4.7-17.5-1.2-35.1-1.2-52.6 0-2 .1-3.6.1-3.9-2.7-.4-5 0-6 3-6.5 3.2-.6 6.5-1.1 9.7-1.9 3-.7 4.6-2.7 5.2-5.7 1.1-5.2.7-10.6.7-15.9.1-13.1 0-26.3-.2-39.4-.1-4.8-.4-9.7-1.5-14.4-3.9-15.6-18.1-23.8-34.2-19.7-4.5 1.1-8.7 3-12.7 5.4-5.3 3-7.6 7.3-7.7 13.2-.2 22.1.2 44.2.7 66.2.2 7.8 1.7 9.2 9.2 11 1.5.4 3 .6 4.6.7 5.4.6 5.6 1.1 4.8 6.6-.4 2.5-1.3 3.3-3.8 3.1-8.2-.5-16.3-1-24.5-1-9.4 0-18.7.5-28.1.9-4.6.2-5 0-4.7-4.6.2-3.2-.8-3.4-3.4-2.4-10.6 4-21.5 7.2-32.5 10.2-4 1.1-5.1.3-5.2-4-.1-4.3-.1-8.6-.2-12.9 0-.8.4-1.9-.5-2.4-1.1-.6-1.8.5-2.5 1.1-9.3 7.3-18.9 14.4-30.8 16.8-12.8 2.6-24.9 1.1-34.6-8.7-5.8-5.9-8-13.6-8.9-21.6-1.5-14.1-.5-28.2-.2-42.3.2-10.1.2-20.3-1-30.4-.5-4.2-3-6.4-7.1-7.1-2.8-.5-5.6-1.1-8.5-1.5-2.3-.3-3.2-1.1-2.7-3.7.9-5.3.8-5.2 6.1-5.5 11.8-.6 23.5-1.5 35.1-4 2.4-.5 3-.1 2.8 2.3-2.1 24.7-1.4 49.4-1.3 74.1 0 4.4.3 8.8 1.3 13.1 2.2 9.5 8.9 15.6 18.5 17 10.6 1.5 20.3-.8 29-7.3 3.8-2.8 5.4-6.5 5.4-11.1 0-5.2 0-10.4.1-15.6.2-5.2.2-10.4.1-15.5 0-.1 0-.1 0 0zM164.4 289.1c.4-11.6-.4-24.6-.7-37.6 0-2.2-.3-4.4-.8-6.6-1.2-5.9-4.5-9.6-10.6-10.9-5-1.1-9.9-2-15-2.7-3.4-.5-3.7-1.2-3.5-6 .1-2.9 1.6-3.4 4.1-3.3 17 .8 34 1 51 .6 4.3-.1 8.6-.3 12.9-.6 2.2-.1 2.9.8 3 2.8.3 5.6.2 5.9-5.3 7-2.3.5-4.5.9-6.8 1.5-8.3 2.2-11.3 5.8-11.9 14.5-1.1 17-1 34-1.5 50.9-.6 17.7-.3 35.5-3.1 53.1-2.3 14.4-6.2 28.2-15.8 39.7-11.2 13.3-26 19.8-42.7 22.4C101 416.7 84.3 416 68 411c-23.5-7.2-36.6-23.6-40.2-47.6-2.1-14.6-1.9-29.3-2.1-43.9-.3-23-.5-45.9-.7-68.9 0-2.3-.2-4.6-.6-6.9-1-5.2-3.8-8.9-9.2-10.1-4-.9-8-1.8-12-2.1-4.5-.4-3-3.7-3.2-6.2-.2-2.8 1.6-3.1 3.9-3 18.1.7 36.2 1.1 54.3.6 5.1-.1 10.1-.3 15.2-.6 1.9-.1 2.7.4 3 2.5.6 5.3.2 6-5 6.9-3.1.6-6.3 1-9.4 1.9-7.1 2.1-9.4 4.8-9.6 12.1-.5 21.1-1.1 42.2-.3 63.2.3 7.8 0 15.7.3 23.5.5 11.9 1.3 23.7 5.8 35 6.1 15 17.4 23.8 32.6 28 13.1 3.6 26.4 3.7 39.6.3 13.9-3.6 22.8-12.9 27.7-26.2 3-8 4.4-16.4 4.9-24.9 1-18.1 1.7-36.1 1.4-55.5zM662.8 217.6c17.7-.2 34 2.5 50.4 4.9 2.5.4 5 .9 7.5.9 2.2 0 2.7.8 2.3 2.8-1.2 7.2-2.2 14.4-2.8 21.6-.6 6.8-1.3 13.6-1.7 20.4-.1 2.3-1 3.1-3 3.4-1.3.2-2.6.2-4 .3-2 .2-2.9-.6-3.1-2.8-.6-5.7-1.7-11.3-3.2-16.8-2.3-8.1-7.1-14-14.9-17-22.9-8.7-46-10.1-68.7.4-16.6 7.7-26.6 21.7-31.9 38.7-9.3 30.3-8.8 60.4 6.5 88.8 12.3 22.8 32.2 34.9 57.9 37.9 8.8 1 17.6.8 26.3-1 13.3-2.8 22.4-11.4 29.9-22 3.3-4.6 6.4-9.5 9.4-14.4 1.1-1.9 2.2-2.1 4-1.2 4.6 2.1 5.3 3.4 3.6 8.2-3.9 11.4-9.4 21.8-16.5 31.5-2.7 3.8-6.2 6-10.7 7.2-27.6 7.4-55.3 8.5-82.9.2-33.4-10-53.8-32.5-61.2-66.4-4.4-20.3-4.4-40.7 2.3-60.7 7.9-23.4 23-40.6 44.8-52 14.5-7.5 30-11.3 46.2-12.5 5.1-.2 9.9-.4 13.5-.4zM1204.6 289c16.5 1.5 33.2.7 50-.1 3.7-.2 3.7 2 3.8 4.3.1 2.3.9 5.1-3.1 5.3-2.2.1-4.3.8-6.5 1.2-4.3 1-5.5 2.9-4.1 7.2 6.7 20.8 14.7 41.1 22.7 61.4 1.1 2.7 2.2 5.3 3.3 7.9.3.6.4 1.7 1.3 1.7s1.1-1 1.4-1.7c3.2-7.3 6.4-14.5 9.4-21.9 5.4-13.5 10.6-27.1 13.9-41.3 2.2-9.6.9-11.6-8.7-13.7-2.3-.5-4.6-.8-6.9-1-1.9-.2-2.8-1-2.6-2.9l.3-3c.3-2.6 1.4-3.6 4.3-3.5 10.1.6 20.3 1.1 30.4.8 6.3-.2 12.6-.4 18.8-.7 2.4-.1 3.2.9 3.1 3 0 1-.1 2 0 3 .2 2.2-.7 3.2-3 3.3-1.7.1-3.5.6-5.2.9-8 1.6-12.3 6.9-15 14.2-5.8 15.8-12.3 31.4-18.8 46.9-17.3 40.8-37.2 80.4-59.4 118.8-4.3 7.4-3.1 8.1-12.6 3.7-2.2-1-4.3-2.3-6.3-3.6-3.2-2.1-3.6-5.3-1.2-8.4 13.3-16.9 26.3-34.1 36.9-52.8 2.1-3.6 4.8-7.2 5.7-11.1 1-4.1-2.4-7.7-3.9-11.6-10.2-26.7-20.6-53.2-31.8-79.5-.2-.5-.5-1-.7-1.5-3.9-9.9-10.8-15.7-21.6-16.1-3.4-.1-3.8-2.1-3.4-4.6.3-2.4 0-5.4 4.1-4.8 1.7.4 3.4.2 5.4.2z"></path><path class="LightModeLogo_svg__st1" d="M224.7 345.6c.4 7.2-.2 19.2.5 31.2 1.1 16 12.8 20.2 24.1 18.7 4-.5 7.8-1.5 11.2-3.6 2.4-1.5 2.7-.6 2.9 1.9.4 6.4-3.6 10-8.3 12.9-10.4 6.6-21.6 8.8-33.5 5.4-12.1-3.5-19.4-13.9-20.1-27.7-1.2-24.4 0-48.8-.1-73.2v-3c0-2.1-.9-3.2-3.1-3.4-4.4-.2-8.8-.8-13.2-1.1-1.9-.1-2.3-.9-1.8-2.5.2-.7.3-1.5.5-2.3.7-3.6 2.1-6.3 6.5-6.4 2.6 0 5.2-1 7.7-1.7 2.5-.6 3.6-2 3.5-4.8-.2-7.1 0-14.1-.1-21.2 0-2 .5-3.2 2.3-4.2 5.9-3.3 11.5-7.1 16.3-11.8 1.6-1.6 3.5-1.1 5.3-1.1 1.3 0 1.1 1 1 1.9-1.3 11.7-.9 23.6-1.5 35.4-.2 4.2.2 4.5 4.3 4.5 10.4 0 20.7-.4 31.1-1.3 2.3-.2 3.1.1 2.5 2.8-.9 3.6-1.4 7.4-1.8 11.1-.2 2.2-1 2.9-3.3 2.9-9.7-.2-19.4-.1-29.1-.3-2.9-.1-3.9.9-3.8 3.8.1 10.8 0 21.5 0 37.1zM1192.9 391.1c.2 4.8-.1 9.3-4.3 12.6-11.7 9.3-24.7 12.5-39 7.8-11.1-3.7-16.7-12.3-18.1-23.6-1.7-14.1-.7-28.2-.8-42.3 0-12.4 0-24.7.1-37.1 0-2.5-1-3.6-3.5-3.7-4.2-.2-8.3-.8-12.5-1-1.9-.1-2.2-.9-2-2.5.3-2.2 1-4.3 1.8-6.4.5-1.3 1.5-1.7 2.8-1.9 3.1-.5 6.2-1.3 9.4-1.9 3-.5 4.2-2 4.1-5.2-.2-7 0-13.9-.1-20.9 0-2 .6-3.1 2.4-4.1 5.8-3.3 11.2-7 16.1-11.5 1.1-1 2.1-1.4 3.5-1.5 2.7-.3 3.4.7 3.1 3.3-1.2 11.2-1.3 22.5-1.3 33.7 0 4.9 0 4.9 4.8 4.9 10.1 0 20.1-.4 30.1-1.3 2.7-.2 3.4.4 2.8 3.1-.8 3.5-1.5 7.1-1.8 10.7-.2 2.3-1.1 2.9-3.2 2.9-9.7-.2-19.4-.1-29.1-.3-3.1-.1-4 1-4 4 .1 18.7-.1 37.3.1 56 .1 5 .2 10.1 1 15.2 1.5 9.5 8.2 15.5 17.9 15.8 6.2.2 12.1-.9 17.5-4 .5-.5 1.1-1.1 2.2-.8z"></path><path class="LightModeLogo_svg__st1" d="M510.1 401.5c-2.2 0-4.3-.6-6.5-1.1-7.2-1.5-9.7-4.5-9.7-11.8-.1-18.5 0-37.1-.2-55.7-.1-8.3-1.3-16.4-4.3-24.3-6.5-17.1-22.7-26-40.6-22.3-12.1 2.5-22.3 8.8-32.1 15.7-.9.7-1.8 2.1-3.1 1.4-1.1-.6-.5-2-.5-3.1l.6-72.2c.1-6.5 0-13 2.8-19.2.7-1.6-.2-3-1.1-4.3-.6-.9-1.5-.5-2.4-.2-13.6 5.2-27.7 7.9-42.1 9.1-3.2.3-2.9 2.4-3 4.5 0 2-.3 3.9 2.8 4.2 4 .3 8.1 1.2 12.1 1.8 3.4.5 5.4 2.4 5.9 5.8.5 3.5.9 7 1 10.5.2 14.1.4 28.3.3 42.4-.1 35.1.5 70.2-.7 105.3-.3 8.8-1.9 10.6-10.4 12.6-1.2.3-2.4.3-3.6.7-1.9.6-2.3-.2-2.1-1.9.4-5.5.4-5.3-4.9-4.6-10.1 1.4-17.5-.5-17-14 .5-12.5.9-24.9 1.2-37.4.3-11.5.5-22.9-3.2-34-5.7-16.7-23.2-27-39.8-22.9-11.9 3-22.7 8.4-33 15.1-1 .6-1.6 1.4-2.1 2.5-2.4 4.7-4.2 9.7-5.6 14.8-.5 1.7-.1 3 1.2 4.1 1.5 1.4 3.1 2.4 4.9 3.3 1.8.8 2.7.4 3.5-1.5 2.2-5.6 4.9-10.8 8.2-15.8 1.6-2.4 3.4-4.6 6.3-5.7 13.8-5.1 32.9 1.9 36.1 18.7.9 4.9 1.1 9.9 1 14.8-.1 3.4-1.7 5.6-4.9 6.6-6.7 2.2-13.3 4.5-20 6.7-10.4 3.3-20.9 6.1-31.1 10.1-1.8.7-3.6 1.5-4.6 3.5-6.7 13.4-5.5 26.3 2.9 38.5 7 10.3 17.3 13.6 29.2 9.6 8.9-3 16.9-7.6 24.7-12.6 2.6-1.6 3.5-1.1 4 1.7 1.1 6 4.5 10.2 10.5 12 3.7 1 7.4 1.1 11.2.6 7.1-1.1 13.5-3.9 19.4-8.9v2.1c.1 4.5.1 4.5 4.8 4.3 8.6-.4 17.2-.9 25.8-.9 9.6 0 19.2.5 28.8 1 2.7.1 3.6-.9 3.8-3.2.1-1.1.1-2.2.1-3.3 0-1.6-.6-2.6-2.5-2.7-2.7-.2-5.4-.9-8.1-1.3-5.5-.9-8-3.1-9-8.6-.5-3.1-.8-6.4-.8-9.5-.2-20.9-.2-41.7-.4-62.6 0-4.3 1.8-7.4 5.4-9.6 5.5-3.4 11.4-5.7 17.8-6.6 16.6-2.2 31.5 7.5 32.7 26.3.8 12.4.9 24.7.8 37.1-.1 8.6.4 17.2-.8 25.8-.6 4.4-2.1 6.3-6.4 7.4-3 .8-6 1.2-9.1 1.7-2.6.5-3.2 2.2-2.8 6.1.3 2.8 1.5 3.2 4.1 3.1 9.7-.5 19.4-.9 29.1-.9 8.3 0 16.5.5 24.8 1 3.6.2 3.7-2.1 3.9-4.4-.2-2.5.9-5.4-3.2-5.4zm-180.6-34.7c0 5.7-.1 11.5-.6 17.2-.3 3.4-1.6 5.7-4.6 7.5-10.3 6.1-23.3 4.9-30.4-3-4.9-5.4-6.2-15.3-2.8-21.7.6-1.1 1.5-1.9 2.6-2.4 10.8-5.4 22.4-8.7 33.7-12.6 2.1-.8 2.1.8 2.1 2.2v12.8zM855.9 333.7c-2.3-14.3-8.4-26.7-19.9-35.9-16.1-12.9-34.5-14.9-53.8-10-30.4 7.7-50.1 30.4-49.2 61.5 0 4 .2 7.9.8 11.9 2.3 14.9 7.6 28.4 19.2 38.5 13.8 12.2 30.5 15.8 48.2 13.1 19.6-3 35.9-12.2 46.4-29.6 9.2-15.3 11.2-32.1 8.3-49.5zm-25.1 28.1c-.3 5.6-.8 11.2-2.2 16.7-5.5 21-22.8 26.1-39.5 20.2-10.3-3.6-17.1-11.4-22-20.9-6-11.6-8-24.2-8.1-36.5 0-8.9 1-16.9 4-24.6 5.8-15.1 19.8-22.2 35.5-17.9 13.7 3.7 21.8 13.2 26.9 25.7 4.8 12 6 24.5 5.4 37.3z"></path></g></svg>